<?xml version="1.0" encoding="utf-8"?>
<!-- Generated by IcoMoon.io -->
<!DOCTYPE svg PUBLIC "-//W3C//DTD SVG 1.1//EN" "http://www.w3.org/Graphics/SVG/1.1/DTD/svg11.dtd">
<svg version="1.1" xmlns="http://www.w3.org/2000/svg" xmlns:xlink="http://www.w3.org/1999/xlink" width="1024" height="1024" viewBox="0 0 1024 1024">
<g id="icomoon-ignore">
</g>
<path fill="#000" d="M459.576 177.56l339.378 347.119-337.57 318.28 83.489 92.588 432.028-407.127-45.355-46.453-384.866-393.509z"></path>
<path fill="#000" d="M542.937 982.775l-127.75-141.686 336.602-317.378-338.409-346.152 133.297-136.332 477.323 488.162-481.063 453.384zM507.581 844.829l39.228 43.485 382.996-360.863-383.125-391.766-40.905 41.87 340.346 348.088-338.538 319.185z"></path>
<path fill="#000" d="M33.033 593.781h832.762v-128.977h-832.762z"></path>
<path fill="#000" d="M898.833 626.816h-898.833v-195.046h898.833v195.046zM66.067 560.744h766.697v-62.908h-766.697v62.908z"></path>
</svg>
