<?xml version="1.0" encoding="utf-8"?>
<!-- Generated by IcoMoon.io -->
<!DOCTYPE svg PUBLIC "-//W3C//DTD SVG 1.1//EN" "http://www.w3.org/Graphics/SVG/1.1/DTD/svg11.dtd">
<svg version="1.1" xmlns="http://www.w3.org/2000/svg" xmlns:xlink="http://www.w3.org/1999/xlink" width="1024" height="1024" viewBox="0 0 1024 1024">
<g id="icomoon-ignore">
</g>
<path fill="#000" d="M459.533 177.477l339.471 347.183-337.631 318.338 83.505 92.669 432.109-407.264-45.363-46.462-384.938-393.584z"></path>
<path fill="#000" d="M542.941 982.907l-127.74-141.777 336.633-317.436-338.505-346.214 133.356-136.387 477.411 488.348-481.156 453.465zM507.545 844.87l39.268 43.563 383.063-360.931-383.192-391.875-40.946 41.848 340.444 348.15-338.637 319.242z"></path>
<path fill="#000" d="M32.944 593.777h832.92v-129h-832.92z"></path>
<path fill="#000" d="M898.9 626.819h-898.997v-195.085h898.997v195.085zM65.984 560.733h766.837v-62.917h-766.837v62.917z"></path>
</svg>

