<?xml version="1.0" encoding="utf-8"?>
<!-- Generated by IcoMoon.io -->
<!DOCTYPE svg PUBLIC "-//W3C//DTD SVG 1.1//EN" "http://www.w3.org/Graphics/SVG/1.1/DTD/svg11.dtd">
<svg version="1.1" xmlns="http://www.w3.org/2000/svg" xmlns:xlink="http://www.w3.org/1999/xlink" width="1024" height="1024" viewBox="0 0 1024 1024">
<g id="icomoon-ignore">
</g>
<path fill="#000" d="M459.52 177.383l339.566 347.281-337.726 318.427 83.528 92.695 432.23-407.378-45.376-46.475-385.046-393.695z"></path>
<path fill="#000" d="M542.952 983.039l-127.776-141.817 336.728-317.525-338.6-346.311 133.393-136.425 477.545 488.485-481.291 453.592zM507.546 844.964l39.279 43.575 383.171-361.032-383.3-391.985-40.958 41.86 340.54 348.248-338.732 319.332z"></path>
<path fill="#000" d="M32.811 593.8h833.154v-129.036h-833.154z"></path>
<path fill="#000" d="M899.011 626.851h-899.25v-195.14h899.25v195.14zM65.861 560.747h767.053v-62.935h-767.053v62.935z"></path>
</svg>

