<?xml version="1.0" encoding="utf-8"?>
<!DOCTYPE svg PUBLIC "-//W3C//DTD SVG 1.1//EN" "http://www.w3.org/Graphics/SVG/1.1/DTD/svg11.dtd">
<svg version="1.1" xmlns="http://www.w3.org/2000/svg" xmlns:xlink="http://www.w3.org/1999/xlink" width="1148" height="1024" viewBox="0 0 1148 1024">
<path d="M31.030 868.848h808.681v93.091h-808.681v-93.091z"></path>
<path d="M310.303 465.455h808.681v93.091h-808.681v-93.091z"></path>
<path d="M1147.19 915.394c0 59.981-48.416 108.606-108.141 108.606s-108.141-48.625-108.141-108.606c0-59.981 48.416-108.606 108.141-108.606s108.141 48.625 108.141 108.606z"></path>
<path d="M216.281 512c0 59.981-48.416 108.606-108.141 108.606s-108.141-48.625-108.141-108.606c0-59.981 48.416-108.606 108.141-108.606s108.141 48.625 108.141 108.606z"></path>
<path d="M31.030 62.061h808.681v93.091h-808.681v-93.091z"></path>
<path d="M1147.19 108.606c0 59.981-48.416 108.606-108.141 108.606s-108.141-48.625-108.141-108.606c0-59.981 48.416-108.606 108.141-108.606s108.141 48.625 108.141 108.606z"></path>
</svg>

