<?xml version="1.0" encoding="utf-8"?>
<!-- Generated by IcoMoon.io -->
<!DOCTYPE svg PUBLIC "-//W3C//DTD SVG 1.1//EN" "http://www.w3.org/Graphics/SVG/1.1/DTD/svg11.dtd">
<svg version="1.1" xmlns="http://www.w3.org/2000/svg" xmlns:xlink="http://www.w3.org/1999/xlink" width="1138" height="1024" viewBox="0 0 1138 1024">
<g id="icomoon-ignore">
</g>
<path fill="#000" d="M295.877 502.188c37.711 0 68.281-29.906 68.281-66.797s-30.57-66.797-68.281-66.797c-37.711 0-68.281 29.906-68.281 66.797s30.57 66.797 68.281 66.797z"></path>
<path fill="#000" d="M364.158 747.108c0 36.891-30.57 66.797-68.281 66.797s-68.281-29.906-68.281-66.797c0-36.891 30.57-66.797 68.281-66.797s68.281 29.906 68.281 66.797z"></path>
<path fill="#000" d="M637.281 435.392c0 36.891-30.57 66.797-68.281 66.797s-68.281-29.906-68.281-66.797c0-36.891 30.57-66.797 68.281-66.797s68.281 29.906 68.281 66.797z"></path>
<path fill="#000" d="M637.281 747.108c0 36.891-30.57 66.797-68.281 66.797s-68.281-29.906-68.281-66.797c0-36.891 30.57-66.797 68.281-66.797s68.281 29.906 68.281 66.797z"></path>
<path fill="#000" d="M910.403 435.392c0 36.891-30.57 66.797-68.281 66.797s-68.281-29.906-68.281-66.797c0-36.891 30.57-66.797 68.281-66.797s68.281 29.906 68.281 66.797z"></path>
<path fill="#000" d="M910.403 747.108c0 36.891-30.57 66.797-68.281 66.797s-68.281-29.906-68.281-66.797c0-36.891 30.57-66.797 68.281-66.797s68.281 29.906 68.281 66.797z"></path>
<path fill="#000" d="M14.011 368.596v643.056h1113.493v-643.056h-91.041v598.524l45.52-44.531h-1022.451l45.52 44.531v-598.524z"></path>
<path fill="#000" d="M409.678 178.122v-165.773h-91.041v165.773z"></path>
<path fill="#000" d="M819.362 178.122v-165.773h-91.041v165.773z"></path>
<path fill="#000" d="M-0.005 235.003h1138.011v-89.061h-1138.011z"></path>
</svg>
