<?xml version="1.0" encoding="utf-8"?>
<!DOCTYPE svg PUBLIC "-//W3C//DTD SVG 1.1//EN" "http://www.w3.org/Graphics/SVG/1.1/DTD/svg11.dtd">
<svg version="1.1" xmlns="http://www.w3.org/2000/svg" xmlns:xlink="http://www.w3.org/1999/xlink" width="1042" height="1024" viewBox="0 0 1042 1024">
<path d="M217.371 683.5c0 55.348-44.574 100.217-99.559 100.217s-99.559-44.869-99.559-100.217c0-55.348 44.574-100.217 99.559-100.217s99.559 44.869 99.559 100.217z"></path>
<path d="M217.371 334.341c0 55.348-44.574 100.217-99.559 100.217s-99.559-44.869-99.559-100.217c0-55.348 44.574-100.217 99.559-100.217s99.559 44.869 99.559 100.217z"></path>
<path d="M628.6 683.5c0 55.348-44.566 100.217-99.54 100.217s-99.54-44.869-99.54-100.217c0-55.348 44.566-100.217 99.54-100.217s99.54 44.869 99.54 100.217z"></path>
<path d="M628.6 334.341c0 55.348-44.566 100.217-99.54 100.217s-99.54-44.869-99.54-100.217c0-55.348 44.566-100.217 99.54-100.217s99.54 44.869 99.54 100.217z"></path>
<path d="M1039.849 683.5c0 55.348-44.566 100.217-99.54 100.217s-99.54-44.869-99.54-100.217c0-55.348 44.566-100.217 99.54-100.217s99.54 44.869 99.54 100.217z"></path>
<path d="M1039.849 334.341c0 55.348-44.566 100.217-99.54 100.217s-99.54-44.869-99.54-100.217c0-55.348 44.566-100.217 99.54-100.217s99.54 44.869 99.54 100.217z"></path>
<path d="M-0.006 932.387h1042.012v91.389h-1042.012v-91.389z"></path>
<path d="M-0.006 0.225h1042.012v91.389h-1042.012v-91.389z"></path>
</svg>
