<?xml version="1.0" encoding="utf-8"?>
<!-- Generated by IcoMoon.io -->
<!DOCTYPE svg PUBLIC "-//W3C//DTD SVG 1.1//EN" "http://www.w3.org/Graphics/SVG/1.1/DTD/svg11.dtd">
<svg version="1.1" xmlns="http://www.w3.org/2000/svg" xmlns:xlink="http://www.w3.org/1999/xlink" width="1024" height="1024" viewBox="0 0 1024 1024">
<g id="icomoon-ignore">
</g>
<path d="M149.327 343.167l-103.297 93.643 344.971 493.322 587.085-730.047-110.067-105.242-477.020 608.744-241.671-360.419z"></path>
<path d="M390.998 971.66c-0.447 0-0.931 0-1.378 0-13.056-0.488-25.185-7.056-32.65-17.761l-344.965-493.281c-12.005-17.156-9.369-40.517 6.125-54.587l103.297-93.643c8.96-8.073 21.126-11.884 32.932-10.424 12.005 1.461 22.752 8.070 29.443 18.088l209.798 312.889 441.735-563.725c7.217-9.207 18.002-14.964 29.684-15.779 12.411-1.092 23.199 3.285 31.719 11.397l110.067 105.242c15.572 14.885 17.195 39.218 3.65 56.048l-587.092 730.047c-7.908 9.812-19.792 15.49-32.364 15.49zM101.026 443.014l292.285 417.932 528.567-657.169-49.398-47.246-448.79 572.688c-8.193 10.466-21.374 15.978-34.231 15.899-13.301-0.488-25.55-7.378-32.932-18.411l-214.908-320.477-40.592 36.784z"></path>
</svg>
