<?xml version="1.0" encoding="utf-8"?>
<!-- Generated by IcoMoon.io -->
<!DOCTYPE svg PUBLIC "-//W3C//DTD SVG 1.1//EN" "http://www.w3.org/Graphics/SVG/1.1/DTD/svg11.dtd">
<svg version="1.1" xmlns="http://www.w3.org/2000/svg" xmlns:xlink="http://www.w3.org/1999/xlink" width="1024" height="1024" viewBox="0 0 1024 1024">
<g id="icomoon-ignore">
</g>
<path d="M827.439 387.824l-523.771 523.771c-2.354 2.354-4.708 3.531-7.062 4.708l-266.005 105.931c-3.531 1.177-5.885 1.177-8.239 1.177-5.885 0-10.593-2.354-15.301-5.885-5.885-5.885-7.062-15.301-4.708-23.541l105.931-266.005c1.177-2.354 2.354-4.708 4.708-7.062l523.771-523.771 190.676 190.676zM999.283 125.351c24.717 25.895 24.717 65.913 0 90.63l-108.285 108.285-190.676-190.676 108.285-108.285c24.717-24.717 64.736-24.717 90.63 0l100.046 100.046z"></path>
</svg>

