<?xml version="1.0" encoding="utf-8"?>
<!-- Generated by IcoMoon.io -->
<!DOCTYPE svg PUBLIC "-//W3C//DTD SVG 1.1//EN" "http://www.w3.org/Graphics/SVG/1.1/DTD/svg11.dtd">
<svg version="1.1" xmlns="http://www.w3.org/2000/svg" xmlns:xlink="http://www.w3.org/1999/xlink" width="1297" height="1024" viewBox="0 0 1297 1024">
<g id="icomoon-ignore">
</g>
<path d="M802.305 496.213c0 84.942-68.863 153.806-153.805 153.806s-153.805-68.863-153.805-153.806c0-84.941 68.863-153.805 153.805-153.805s153.805 68.863 153.805 153.805z"></path>
<path d="M1055.166 0.001l105.335 105.335-918.665 918.665-105.335-105.335 918.665-918.665z"></path>
<path d="M1158.729 467.638c-181.773-188.902-366.661-279.15-549.49-268.185-277.345 16.605-463.346 258.968-465.194 261.414l-118.898-89.746c2.339-3.1 58.42-76.784 155.817-152.351 57.418-44.551 117.823-81.007 179.537-108.358 78.416-34.754 159.109-54.827 239.836-59.658 106.692-6.391 214.062 13.762 319.115 59.891 117.764 51.71 234.384 137.068 346.62 253.705l-107.344 103.29z"></path>
<path d="M658.068 958.432c-93.943 0-188.123-20.474-280.52-61.046-117.764-51.71-234.384-137.069-346.619-253.705l107.341-103.291c181.774 188.902 366.647 279.117 549.491 268.185 277.345-16.603 463.346-258.968 465.192-261.414l118.898 89.746c-2.339 3.1-58.42 76.784-155.817 152.353-57.418 44.549-117.821 81.007-179.537 108.358-78.416 34.754-159.109 54.826-239.835 59.658-12.854 0.771-25.725 1.155-38.595 1.155z"></path>
</svg>
