<?xml version="1.0" encoding="utf-8"?>
<!DOCTYPE svg PUBLIC "-//W3C//DTD SVG 1.1//EN" "http://www.w3.org/Graphics/SVG/1.1/DTD/svg11.dtd">
<svg version="1.1" xmlns="http://www.w3.org/2000/svg" xmlns:xlink="http://www.w3.org/1999/xlink" width="1148" height="1024" viewBox="0 0 1148 1024">
<path d="M452.895 556.084h448.707v-88.167h-485.959v88.167z"></path>
<path d="M67.904 556.084h76.752v-88.167h-114.003v88.167z"></path>
<path d="M365.43 512c0 56.809-38.751 102.862-86.554 102.862s-86.554-46.053-86.554-102.862c0-56.809 38.751-102.862 86.554-102.862s86.554 46.053 86.554 102.862z"></path>
<path d="M478.104 849.974h-448.707v88.167h485.959v-88.167z"></path>
<path d="M863.094 849.974h-76.752v88.167h114.003v-88.167z"></path>
<path d="M565.568 894.058c0-56.809 38.751-102.862 86.554-102.862s86.554 46.053 86.554 102.862c0 56.809-38.751 102.862-86.554 102.862s-86.554-46.053-86.554-102.862z"></path>
<path d="M478.104 85.859h-448.707v88.167h485.959v-88.167z"></path>
<path d="M863.094 85.859h-76.752v88.167h114.003v-88.167z"></path>
<path d="M565.568 129.942c0-56.809 38.751-102.862 86.554-102.862s86.554 46.053 86.554 102.862c0 56.809-38.751 102.862-86.554 102.862s-86.554-46.053-86.554-102.862z"></path>
</svg>
