<?xml version="1.0" encoding="utf-8"?>
<!DOCTYPE svg PUBLIC "-//W3C//DTD SVG 1.1//EN" "http://www.w3.org/Graphics/SVG/1.1/DTD/svg11.dtd">
<svg version="1.1" xmlns="http://www.w3.org/2000/svg" xmlns:xlink="http://www.w3.org/1999/xlink" width="1148" height="1024" viewBox="0 0 1148 1024">
<path fill="#000" d="M188.010 921.958c0 48.941-40.178 88.615-89.741 88.615s-89.741-39.674-89.741-88.615c0-48.941 40.178-88.615 89.741-88.615s89.741 39.674 89.741 88.615z"></path>
<path fill="#000" d="M621.241 925.538c0 48.941-40.178 88.615-89.741 88.615s-89.741-39.674-89.741-88.615c0-48.941 40.178-88.615 89.741-88.615s89.741 39.674 89.741 88.615z"></path>
<path fill="#000" d="M188.010 492.308c0 48.941-40.178 88.615-89.741 88.615s-89.741-39.674-89.741-88.615c0-48.941 40.178-88.615 89.741-88.615s89.741 39.674 89.741 88.615z"></path>
<path fill="#000" d="M621.241 492.308c0 48.941-40.178 88.615-89.741 88.615s-89.741-39.674-89.741-88.615c0-48.941 40.178-88.615 89.741-88.615s89.741 39.674 89.741 88.615z"></path>
<path fill="#000" d="M188.010 98.461c0 48.941-40.178 88.615-89.741 88.615s-89.741-39.674-89.741-88.615c0-48.941 40.178-88.615 89.741-88.615s89.741 39.674 89.741 88.615z"></path>
<path fill="#000" d="M621.241 98.461c0 48.941-40.178 88.615-89.741 88.615s-89.741-39.674-89.741-88.615c0-48.941 40.178-88.615 89.741-88.615s89.741 39.674 89.741 88.615z"></path>
<path fill="#000" d="M1054.472 925.538c0 48.941-40.178 88.615-89.741 88.615s-89.741-39.674-89.741-88.615c0-48.941 40.178-88.615 89.741-88.615s89.741 39.674 89.741 88.615z"></path>
<path fill="#000" d="M1054.472 492.308c0 48.941-40.178 88.615-89.741 88.615s-89.741-39.674-89.741-88.615c0-48.941 40.178-88.615 89.741-88.615s89.741 39.674 89.741 88.615z"></path>
<path fill="#000" d="M1054.472 98.461c0 48.941-40.178 88.615-89.741 88.615s-89.741-39.674-89.741-88.615c0-48.941 40.178-88.615 89.741-88.615s89.741 39.674 89.741 88.615z"></path>
</svg>

