<?xml version="1.0" encoding="utf-8"?>
<!-- Generated by IcoMoon.io -->
<!DOCTYPE svg PUBLIC "-//W3C//DTD SVG 1.1//EN" "http://www.w3.org/Graphics/SVG/1.1/DTD/svg11.dtd">
<svg version="1.1" xmlns="http://www.w3.org/2000/svg" xmlns:xlink="http://www.w3.org/1999/xlink" width="1024" height="1024" viewBox="0 0 1024 1024">
<g id="icomoon-ignore">
</g>
<path d="M924.234 1024.124h-824.466c-52.55 0-95.132-42.579-95.132-95.132s42.579-95.132 95.132-95.132h729.334v-736.564c0-52.536 42.579-95.132 95.132-95.132s95.132 42.597 95.132 95.132v831.697c0 52.554-42.583 95.132-95.132 95.132z"></path>
<path d="M864.005 998.886c-32.051 0-63.328-16.162-81.256-45.521l-29.572-48.37-705.187-734.244c-36.385-37.905-35.174-98.12 2.727-134.509 37.902-36.368 98.072-35.193 134.523 2.712l712.334 741.707c4.737 4.956 8.949 10.402 12.541 16.29l34.962 57.193c27.405 44.812 13.282 103.372-31.554 130.778-15.483 9.474-32.612 13.964-49.517 13.964z"></path>
</svg>
