<?xml version="1.0" encoding="utf-8"?>
<!-- Generated by IcoMoon.io -->
<!DOCTYPE svg PUBLIC "-//W3C//DTD SVG 1.1//EN" "http://www.w3.org/Graphics/SVG/1.1/DTD/svg11.dtd">
<svg version="1.1" xmlns="http://www.w3.org/2000/svg" xmlns:xlink="http://www.w3.org/1999/xlink" width="1024" height="1024" viewBox="0 0 1024 1024">
<g id="icomoon-ignore">
</g>
<path fill="#000" d="M924.109 1023.999h-824.213c-52.52 0-95.102-42.564-95.102-95.102s42.581-95.102 95.102-95.102h729.11v-736.37c0-52.52 42.564-95.102 95.102-95.102s95.102 42.581 95.102 95.102v831.473c0 52.534-42.567 95.102-95.102 95.102z"></path>
<path fill="#000" d="M863.896 998.738c-32.041 0-63.307-16.162-81.232-45.509l-29.565-48.354-704.949-734.019c-36.39-37.894-35.169-98.089 2.707-134.465 37.845-36.39 98.089-35.165 134.465 2.71l712.133 741.48c4.736 4.954 8.947 10.403 12.539 16.283l34.948 57.181c27.398 44.794 13.282 103.337-31.543 130.731-15.477 9.473-32.597 13.963-49.503 13.963z"></path>
</svg>

