<?xml version="1.0" encoding="utf-8"?>
<!-- Generated by IcoMoon.io -->
<!DOCTYPE svg PUBLIC "-//W3C//DTD SVG 1.1//EN" "http://www.w3.org/Graphics/SVG/1.1/DTD/svg11.dtd">
<svg version="1.1" xmlns="http://www.w3.org/2000/svg" xmlns:xlink="http://www.w3.org/1999/xlink" width="1024" height="1024" viewBox="0 0 1024 1024">
<g id="icomoon-ignore">
</g>
<path d="M513.408 358.097c38.706 0 70.084-31.377 70.084-70.084s-31.377-70.084-70.084-70.084c-38.706 0-70.084 31.377-70.084 70.084s31.377 70.084 70.084 70.084z"></path>
<path d="M466.921 492.748v298.179h90.158v-357.816h-90.158z"></path>
<path d="M512 1024c282.77 0 512-229.23 512-512s-229.23-512-512-512c-282.77 0-512 229.23-512 512s229.23 512 512 512v0zM512 947.366c-240.446 0-435.366-194.92-435.366-435.366s194.92-435.366 435.366-435.366c240.446 0 435.366 194.92 435.366 435.366s-194.92 435.366-435.366 435.366v0z"></path>
</svg>
