<?xml version="1.0" encoding="utf-8"?>
<!-- Generated by IcoMoon.io -->
<!DOCTYPE svg PUBLIC "-//W3C//DTD SVG 1.1//EN" "http://www.w3.org/Graphics/SVG/1.1/DTD/svg11.dtd">
<svg version="1.1" xmlns="http://www.w3.org/2000/svg" xmlns:xlink="http://www.w3.org/1999/xlink" width="1024" height="1024" viewBox="0 0 1024 1024">
<path d="M69.821 215.286h884.363c38.59 0 69.816-31.262 69.816-69.82s-31.227-69.816-69.816-69.816h-884.363c-38.558 0-69.82 31.262-69.82 69.816 0 38.558 31.266 69.82 69.82 69.82z"></path>
<path d="M954.187 442.166h-884.367c-38.558 0-69.82 31.262-69.82 69.816s31.262 69.816 69.82 69.816h884.363c38.59 0 69.816-31.262 69.816-69.816s-31.224-69.816-69.813-69.816z"></path>
<path d="M954.187 808.715h-884.367c-38.558 0-69.82 31.227-69.82 69.816s31.262 69.82 69.82 69.82h884.363c38.59 0 69.816-31.23 69.816-69.82s-31.224-69.816-69.813-69.816z"></path>
</svg>

