<?xml version="1.0" encoding="utf-8"?>
<!-- Generated by IcoMoon.io -->
<!DOCTYPE svg PUBLIC "-//W3C//DTD SVG 1.1//EN" "http://www.w3.org/Graphics/SVG/1.1/DTD/svg11.dtd">
<svg version="1.1" xmlns="http://www.w3.org/2000/svg" xmlns:xlink="http://www.w3.org/1999/xlink" width="1024" height="1024" viewBox="0 0 1024 1024">
<g id="icomoon-ignore">
</g>
<path fill="#000" d="M31.902 239.949h960.181c17.667 0 32.006-25.028 32.006-56.011s-14.339-56.011-32.006-56.011h-960.181c-17.667 0-32.006 25.028-32.006 56.011s14.307 56.011 32.006 56.011z"></path>
<path fill="#000" d="M31.902 896.072h960.181c17.667 0 32.006-25.045 32.006-56.011s-14.339-56.011-32.006-56.011h-960.181c-17.667 0-32.006 25.045-32.006 56.011s14.307 56.011 32.006 56.011z"></path>
<path fill="#000" d="M31.902 568.011h960.181c17.667 0 32.006-25.061 32.006-56.011 0-30.965-14.339-56.011-32.006-56.011h-960.181c-17.667 0-32.006 25.045-32.006 56.011 0 30.95 14.307 56.011 32.006 56.011z"></path>
</svg>

