<?xml version="1.0" encoding="utf-8"?>
<!DOCTYPE svg PUBLIC "-//W3C//DTD SVG 1.1//EN" "http://www.w3.org/Graphics/SVG/1.1/DTD/svg11.dtd">
<svg version="1.1" xmlns="http://www.w3.org/2000/svg" xmlns:xlink="http://www.w3.org/1999/xlink" width="1024" height="1024" viewBox="0 0 1024 1024">
<path d="M747.52 647.010c0 50.754-40.968 91.897-91.504 91.897s-91.504-41.144-91.504-91.897c0-50.754 40.968-91.897 91.504-91.897s91.504 41.144 91.504 91.897z"></path>
<path d="M393.058 647.010c0 50.754-40.968 91.897-91.504 91.897s-91.504-41.144-91.504-91.897c0-50.754 40.968-91.897 91.504-91.897s91.504 41.144 91.504 91.897z"></path>
<path d="M996.956 253.164c0 50.754-40.968 91.897-91.504 91.897s-91.504-41.144-91.504-91.897c0-50.754 40.968-91.897 91.504-91.897s91.504 41.144 91.504 91.897z"></path>
<path d="M1010.872 1007.143h-997.744v-990.287h78.769v911.518h918.974z"></path>
</svg>

