<?xml version="1.0" encoding="utf-8"?>
<!-- Generated by IcoMoon.io -->
<!DOCTYPE svg PUBLIC "-//W3C//DTD SVG 1.1//EN" "http://www.w3.org/Graphics/SVG/1.1/DTD/svg11.dtd">
<svg version="1.1" xmlns="http://www.w3.org/2000/svg" xmlns:xlink="http://www.w3.org/1999/xlink" width="1054" height="1024" viewBox="0 0 1054 1024">
<g id="icomoon-ignore">
</g>
<path fill="#000" d="M93.753 426.211c51.786 0 93.76 41.987 93.76 93.76 0 51.799-41.974 93.76-93.76 93.76s-93.76-41.96-93.76-93.76c0-51.772 41.974-93.76 93.76-93.76z"></path>
<path fill="#000" d="M960.248 421.554c51.772 0 93.76 41.974 93.76 93.76 0 51.799-41.991 93.76-93.76 93.76-51.799 0-93.754-41.96-93.754-93.76 0-51.786 41.96-93.76 93.754-93.76z"></path>
<path fill="#000" d="M575.612 907.668l-128.708-507.786-54.205 160.271h-124.693v-80.366h67.048l122.85-363.456 136.809 539.647 74.472-176.191h122.801v80.366h-69.535z"></path>
</svg>
