<?xml version="1.0" encoding="utf-8"?>
<!DOCTYPE svg PUBLIC "-//W3C//DTD SVG 1.1//EN" "http://www.w3.org/Graphics/SVG/1.1/DTD/svg11.dtd">
<svg version="1.1" xmlns="http://www.w3.org/2000/svg" xmlns:xlink="http://www.w3.org/1999/xlink" width="1024" height="1024" viewBox="0 0 1024 1024">
<path fill="#000" d="M183.36 533.944h-87.771v-206.497c0-176.508 143.594-320.132 320.132-320.132s320.132 143.623 320.132 320.132v200.177h-87.771v-200.177c0-128.117-104.214-232.36-232.36-232.36-128.117 0-232.36 104.214-232.36 232.36v206.497z"></path>
<path fill="#000" d="M21.363 650.973h805.274v87.771h-805.274v-87.771z"></path>
<path fill="#000" d="M518.881 928.916c0 48.475-39.297 87.771-87.771 87.771s-87.771-39.297-87.771-87.771c0-48.475 39.297-87.771 87.771-87.771s87.771 39.297 87.771 87.771z"></path>
</svg>
