<?xml version="1.0" encoding="utf-8"?>
<!-- Generated by IcoMoon.io -->
<!DOCTYPE svg PUBLIC "-//W3C//DTD SVG 1.1//EN" "http://www.w3.org/Graphics/SVG/1.1/DTD/svg11.dtd">
<svg version="1.1" xmlns="http://www.w3.org/2000/svg" xmlns:xlink="http://www.w3.org/1999/xlink" width="1024" height="1024" viewBox="0 0 1024 1024">
<path d="M623.333 697.744l-269.172-269.216 113.774-113.774-242.757-242.757-158.334 158.338-3.81 11.4c-11.154 33.509-63.034 204.367 12.322 279.728l463.578 463.575 11.403 3.783c3.434 1.148 84.593 27.933 159.428 27.933 53.128 0 93.656-13.542 120.293-40.228l149.825-149.771-242.729-242.781-113.821 113.77z"></path>
<path d="M744.224 522.235l99.981-20.015c-52.977-264.566-310.223-318.937-321.151-321.127l-20.213 99.954c8.235 1.692 201.948 44.236 241.383 241.188z"></path>
<path d="M927.306 510.408l96.694-32.262c-143.301-429.898-465.594-469.431-479.212-470.901l-11.253 101.352c11.052 1.32 271.981 36.694 393.771 401.811z"></path>
</svg>

