<?xml version="1.0" encoding="utf-8"?>
<!DOCTYPE svg PUBLIC "-//W3C//DTD SVG 1.1//EN" "http://www.w3.org/Graphics/SVG/1.1/DTD/svg11.dtd">
<svg version="1.1" xmlns="http://www.w3.org/2000/svg" xmlns:xlink="http://www.w3.org/1999/xlink" width="993" height="1024" viewBox="0 0 993 1024">
<path d="M993.004 37.685c0-8.396-4.798-16.79-13.192-20.388-8.396-2.398-17.988-1.2-23.987 4.798l-160.705 161.902c-85.149-77.953-196.683-124.726-320.209-124.726-261.444 0-474.915 213.473-474.915 474.915s213.473 474.915 474.915 474.915c122.326 0 235.060-46.77 319.009-123.526 1.2 0 1.2-1.2 1.2-1.2 3.598-3.598 5.996-8.396 5.996-14.39s-1.2-10.792-5.996-14.39v-1.2l-92.346-92.346c-7.196-7.196-20.388-8.396-28.782 0-53.967 45.573-123.526 74.355-199.081 74.355-166.701 0-302.218-135.518-302.218-302.218s135.518-302.218 302.218-302.218c75.555 0 145.114 27.582 197.881 74.355l-127.124 125.924c-5.996 5.996-7.196 15.59-4.798 23.987 3.598 8.396 11.992 13.192 20.388 13.192h410.154c11.992 0 21.589-9.594 21.589-21.589v-410.154z"></path>
</svg>
