<?xml version="1.0" encoding="utf-8"?>
<!-- Generated by IcoMoon.io -->
<!DOCTYPE svg PUBLIC "-//W3C//DTD SVG 1.1//EN" "http://www.w3.org/Graphics/SVG/1.1/DTD/svg11.dtd">
<svg version="1.1" xmlns="http://www.w3.org/2000/svg" xmlns:xlink="http://www.w3.org/1999/xlink" width="1024" height="1024" viewBox="0 0 1024 1024">
<g id="icomoon-ignore">
</g>
<path d="M444.122 762.881c-174.959 0-317.249-141.399-317.249-315.124s142.289-315.124 317.249-315.124c174.959 0 317.249 141.399 317.249 315.124s-142.289 315.124-317.249 315.124v0zM1024 928.289l-221.903-220.479c53.858-73.031 86.148-162.76 86.148-260.051 0-243.227-199.255-441.147-444.122-441.147s-444.122 197.921-444.122 441.147c0 243.227 199.255 441.147 444.122 441.147 101.246 0 194.371-34.153 269.163-91.052l221.014 219.534 89.7-89.099z"></path>
</svg>

