<?xml version="1.0" encoding="utf-8"?>
<!DOCTYPE svg PUBLIC "-//W3C//DTD SVG 1.1//EN" "http://www.w3.org/Graphics/SVG/1.1/DTD/svg11.dtd">
<svg version="1.1" xmlns="http://www.w3.org/2000/svg" xmlns:xlink="http://www.w3.org/1999/xlink" width="1536" height="1024" viewBox="0 0 1536 1024">
<path d="M634.343 512.006c0 67.578-54.77 122.348-122.348 122.348s-122.348-54.77-122.348-122.348c0-67.578 54.77-122.348 122.348-122.348s122.348 54.77 122.348 122.348z"></path>
<path d="M512 188.323c-87.598 0-158.866-71.268-158.866-158.82h91.486c0 37.098 30.236 67.334 67.38 67.334s67.334-30.236 67.334-67.334h91.486c0 87.552-71.268 158.82-158.82 158.82z"></path>
<path d="M93.88 429.545c-26.943 0-54.206-6.816-79.136-21.225l45.743-79.227c32.112 18.526 73.326 7.548 91.944-24.656 18.617-32.157 7.502-73.418-24.656-91.989l45.743-79.273c75.842 43.822 101.961 141.118 58.185 217.006-29.413 50.866-82.932 79.364-137.824 79.364z"></path>
<path d="M173.528 890.819l-45.743-79.227c32.157-18.572 43.227-59.832 24.656-91.989s-59.786-43.182-91.989-24.656l-45.743-79.273c75.751-43.685 173.138-17.657 216.96 58.185s17.703 173.184-58.14 216.96z"></path>
<path d="M670.806 994.501h-91.486c0-37.143-30.19-67.334-67.334-67.334s-67.334 30.19-67.334 67.334h-91.486c0-87.552 71.222-158.82 158.82-158.82 87.552 0 158.82 71.268 158.82 158.82z"></path>
<path d="M850.426 890.819c-75.796-43.822-101.916-141.118-58.14-216.96 43.868-75.842 141.072-101.87 217.006-58.185l-45.743 79.273c-32.157-18.572-73.464-7.548-91.989 24.656-18.572 32.157-7.502 73.418 24.61 91.989l-45.743 79.227z"></path>
<path d="M792.296 350.181c-43.776-75.842-17.657-173.184 58.14-216.96l45.743 79.181c-32.112 18.617-43.227 59.878-24.61 92.035 18.572 32.203 59.878 43.227 91.944 24.656l45.743 79.227c-24.884 14.409-52.193 21.225-79.136 21.225-54.892 0-108.411-28.498-137.824-79.364z"></path>
</svg>

