<?xml version="1.0" encoding="utf-8"?>
<!-- Generated by IcoMoon.io -->
<!DOCTYPE svg PUBLIC "-//W3C//DTD SVG 1.1//EN" "http://www.w3.org/Graphics/SVG/1.1/DTD/svg11.dtd">
<svg version="1.1" xmlns="http://www.w3.org/2000/svg" xmlns:xlink="http://www.w3.org/1999/xlink" width="1054" height="1024" viewBox="0 0 1054 1024">
<g id="icomoon-ignore">
</g>
<path fill="#000" d="M203.621 230.183c0 55.986-45.584 101.371-101.814 101.371s-101.814-45.385-101.814-101.371c0-55.986 45.584-101.371 101.814-101.371s101.814 45.385 101.814 101.371z"></path>
<path fill="#000" d="M952.198 616.066c56.244 0 101.81 45.365 101.81 101.358s-45.564 101.358-101.81 101.358c-56.218 0-101.81-45.365-101.81-101.358s45.592-101.358 101.81-101.358z"></path>
<path fill="#000" d="M741.761 761.057h-329.111v-487.239h-150.854v-87.264h238.123v487.235h241.843z"></path>
<path fill="#000" d="M636.397 895.188l-60.136-63.231 120.392-114.534-120.392-114.539 60.136-63.231 186.833 177.77z"></path>
</svg>
